<svg width="48" height="40" viewBox="0 0 48 40" fill="none" xmlns="http://www.w3.org/2000/svg">
<path id="email icon" d="M3.6 40C2.64 40 1.8 39.625 1.08 38.875C0.36 38.125 0 37.25 0 36.25V3.75C0 2.75 0.36 1.875 1.08 1.125C1.8 0.374999 2.64 0 3.6 0H44.4C45.36 0 46.2 0.374999 46.92 1.125C47.64 1.875 48 2.75 48 3.75V36.25C48 37.25 47.64 38.125 46.92 38.875C46.2 39.625 45.36 40 44.4 40H3.6ZM24 21.125L3.6 7.1875V36.25H44.4V7.1875L24 21.125ZM24 17.375L44.16 3.75H3.9L24 17.375ZM3.6 7.1875V3.75V36.25V7.1875Z" fill="white"/>
</svg>
