<svg width="48" height="44" viewBox="0 0 48 44" fill="none" xmlns="http://www.w3.org/2000/svg">
<path id="linkedin icon" d="M10.4348 44H0V14H10.4348V44ZM5.21948 10C2.33322 10 0 7.758 0 4.998C0 2.238 2.33739 0 5.21948 0C8.0953 0 10.4348 2.242 10.4348 4.998C10.4348 7.758 8.0953 10 5.21948 10ZM48 44H37.968V29.4C37.968 25.918 37.8991 21.44 32.7527 21.44C27.529 21.44 26.7256 25.232 26.7256 29.148V44H16.6957V13.978H26.3249V18.08H26.4605C27.8004 15.72 31.0748 13.232 35.9583 13.232C46.1217 13.232 48 19.45 48 27.534V44Z" fill="#FEFEFE"/>
</svg>
