<svg width="406" height="408" viewBox="0 0 406 408" fill="none" xmlns="http://www.w3.org/2000/svg">
<mask id="path-1-inside-1_10_51" fill="white">
<path d="M0 203C0 90.8862 90.8862 0 203 0C315.114 0 406 91.385 406 203.499C406 316.165 314.666 408 202 408H18C8.05886 408 0 399.941 0 390V203Z"/>
</mask>
<path d="M0 0H406H0ZM406 408H0H406ZM0 408V0V408ZM216.469 0C328.876 0 420 91.1239 420 203.531C420 316.456 328.456 408 215.531 408H202C306.934 408 392 316.666 392 204V203C392 90.8862 307.382 0 203 0H216.469Z" fill="white" mask="url(#path-1-inside-1_10_51)"/>
</svg>
